<svg preserveAspectRatio="none" width="100%" height="100%" overflow="visible" style="display: block;" viewBox="0 0 28.0382 27.9988" fill="none" xmlns="http://www.w3.org/2000/svg">
<g id="&#229;&#155;&#190;&#229;&#177;&#130; 4">
<path id="Vector" d="M19.9228 27.9988C18.137 27.4667 16.1652 27.2332 14.6002 26.3414C8.8592 23.0266 4.12926 18.6017 1.16191 12.6572C-0.654914 9.0476 -0.38762 5.37679 2.29307 2.17296C3.0531 1.32341 4.02164 0.681448 5.10546 0.308846C7.08886 -0.383977 7.96047 0.0676979 9.0219 1.87822C9.72306 3.07631 10.4049 4.28971 11.137 5.47248C11.6871 6.36435 11.6677 7.17583 10.9704 7.96818C10.401 8.61507 9.909 9.36531 9.23883 9.88205C7.90236 10.9232 7.96822 11.9758 8.76235 13.327C10.4591 16.1978 12.6904 18.4179 15.8398 19.6275C16.0918 19.6915 16.3546 19.702 16.611 19.6585C16.8673 19.6149 17.1115 19.5183 17.3274 19.3749C18.2958 18.6706 19.1558 17.8132 20.0662 17.0285C20.3934 16.7021 20.8273 16.5011 21.2905 16.4611C21.7537 16.4212 22.2162 16.5449 22.5958 16.8103C24.0097 17.6409 25.5089 18.3414 26.857 19.2907C27.4821 19.7545 27.8991 20.4413 28.0191 21.2045C28.2593 24.06 26.2178 26.3873 22.7778 27.3289C21.8829 27.5279 20.9777 27.6787 20.0662 27.7806L19.9228 27.9988Z" fill="var(--fill-0, #F0E0D0)"/>
</g>
</svg>
