<svg preserveAspectRatio="none" width="100%" height="100%" overflow="visible" style="display: block;" viewBox="0 0 26 26" fill="none" xmlns="http://www.w3.org/2000/svg">
<g id="&#229;&#155;&#190;&#229;&#177;&#130; 4">
<path id="Vector" d="M0.000318611 10.6707C-0.0147029 9.60171 0.501663 8.91907 1.50247 8.53087L13.4052 3.93247C16.6536 2.67598 19.9039 1.41573 23.156 0.181737C24.4704 -0.318986 25.674 0.243624 25.9594 1.517C26.0405 1.95034 25.9995 2.39765 25.8411 2.80913C23.8808 7.9345 21.898 13.0505 19.9095 18.1684C19.0833 20.3026 18.2759 22.4442 17.4347 24.5728C16.9578 25.7842 15.7767 26.3356 14.7214 25.788C14.2721 25.5483 13.9081 25.1755 13.6793 24.7209C13.0034 23.2863 12.4231 21.8047 11.8129 20.3382C11.4036 19.3536 11.5538 18.4216 12.0889 17.5251C13.3075 15.466 14.5093 13.4068 15.7354 11.3627C15.9682 10.9726 16.0846 10.5469 15.6866 10.3125C15.5209 10.2341 15.3399 10.1931 15.1565 10.1925C14.9732 10.1918 14.7919 10.2315 14.6257 10.3087C12.6228 11.4339 10.6443 12.5942 8.69029 13.7894C7.5524 14.4889 6.43705 14.5789 5.22594 14.0276C3.92658 13.4368 2.59717 12.9024 1.28278 12.351C0.47162 11.9965 0.0622825 11.3758 0.000318611 10.6707Z" fill="var(--fill-0, #F0E0D0)"/>
</g>
</svg>
