<svg preserveAspectRatio="none" width="100%" height="100%" overflow="visible" style="display: block;" viewBox="0 0 49.0003 49" fill="none" xmlns="http://www.w3.org/2000/svg">
<g id="&#229;&#155;&#190;&#229;&#177;&#130; 4">
<path id="Vector" d="M0.000635181 24.3943C0.0215003 19.5539 1.47573 14.8281 4.1798 10.8134C6.88388 6.79861 10.7166 3.67482 15.1943 1.83622C19.672 -0.00238562 24.594 -0.473406 29.3391 0.482599C34.0843 1.4386 38.4399 3.77879 41.8563 7.20782C45.2727 10.6369 47.5968 15.0011 48.5353 19.7497C49.4738 24.4983 48.9847 29.4185 47.1296 33.8894C45.2745 38.3603 42.1366 42.1815 38.1119 44.8708C34.0872 47.56 29.3561 48.9968 24.5156 48.9998C21.2855 49.0112 18.0851 48.3819 15.0997 47.1483C12.1144 45.9146 9.40332 44.1012 7.12344 41.8129C4.84355 39.5246 3.04012 36.8069 1.8175 33.817C0.594876 30.8271 -0.0226572 27.6244 0.000635181 24.3943ZM24.4402 41.8842C26.8996 41.8938 29.3303 41.3554 31.5557 40.3082C33.781 39.2609 35.7452 37.7312 37.3054 35.83C38.8656 33.9288 39.9828 31.7039 40.5757 29.317C41.1687 26.9301 41.2225 24.4411 40.7333 22.0308C39.9318 17.8307 37.507 14.1159 33.9847 11.6918C32.6018 10.686 31.0882 10.9174 30.3389 12.1192C29.4991 13.4719 29.8662 14.6336 31.0731 15.5941C31.3195 15.7902 31.576 15.9612 31.8274 16.1623C33.8855 17.8289 35.3196 20.1425 35.8965 22.7272C36.4734 25.3118 36.1592 28.0157 35.005 30.3992C33.8508 32.7827 31.9245 34.7059 29.539 35.8561C27.1536 37.0063 24.4492 37.316 21.8655 36.7348C17.1637 35.6084 14.1213 32.561 13.0753 27.8641C12.0344 23.2478 13.4977 19.3153 17.0983 16.1925C17.6012 15.7399 18.4812 15.3326 18.5616 14.8096C18.7125 13.8038 18.7829 12.4411 18.2247 11.7672C17.1536 10.4698 15.7606 11.0632 14.5437 11.9684C8.9769 16.0969 6.49774 23.63 8.63495 30.1522C10.9431 37.3131 17.0983 41.8691 24.4402 41.8842ZM26.8691 13.3764C26.8691 11.8678 26.8993 10.3592 26.8691 8.85055C26.8389 7.34194 26.0796 6.4418 24.576 6.38648C22.9769 6.32613 22.0616 7.30171 22.0315 8.81535C21.9409 11.8929 21.9359 14.9806 22.0315 18.0581C22.0767 19.4662 22.9417 20.4568 24.4402 20.4468C26.0192 20.4468 26.8339 19.4762 26.8691 17.9073C26.9043 16.3383 26.8691 14.885 26.8691 13.3764Z" fill="var(--fill-0, #3C312C)"/>
<path id="Vector_2" d="M24.4402 41.8842C17.0882 41.8842 10.9431 37.3131 8.61988 30.1522C6.50278 23.6149 8.96183 16.0969 14.5286 11.9684C15.7456 11.0632 17.1385 10.4597 18.2096 11.7672C18.7678 12.4411 18.7125 13.8089 18.5466 14.8096C18.4661 15.3125 17.6012 15.7399 17.0832 16.1925C13.4877 19.3053 12.0243 23.2327 13.0602 27.8641C14.1163 32.561 17.1586 35.5933 21.8605 36.7348C24.4447 37.3177 27.15 37.0093 29.5367 35.8597C31.9234 34.7101 33.8509 32.7869 35.0059 30.4029C36.161 28.0188 36.4755 25.3141 35.8984 22.7287C35.3213 20.1432 33.8866 17.829 31.8274 16.1623C31.581 15.9612 31.3245 15.7902 31.0731 15.5941C29.8662 14.6386 29.4991 13.4719 30.3389 12.1192C31.0882 10.9174 32.6018 10.7062 33.9847 11.6918C37.5071 14.1159 39.9318 17.8307 40.7333 22.0308C41.2225 24.4411 41.1687 26.9301 40.5757 29.317C39.9828 31.7039 38.8657 33.9288 37.3054 35.83C35.7452 37.7312 33.781 39.2609 31.5557 40.3082C29.3303 41.3554 26.8997 41.8938 24.4402 41.8842Z" fill="var(--fill-0, #EDC095)"/>
<path id="Vector_3" d="M26.8691 13.3764C26.8691 14.885 26.8691 16.3936 26.8691 17.9022C26.8691 19.4109 26.0192 20.4166 24.4402 20.4417C22.9316 20.4417 22.0767 19.436 22.0315 18.0531C21.9309 14.9755 21.9359 11.8879 22.0315 8.81032C22.0767 7.3017 22.9768 6.29596 24.576 6.38145C26.0846 6.43677 26.8339 7.38719 26.8691 8.84552C26.9043 10.3039 26.8691 11.8678 26.8691 13.3764Z" fill="var(--fill-0, #EDC095)"/>
</g>
</svg>
